HIERARCHY
ROOT Hips
{
	OFFSET -0.001795 -0.223333 0.028219
	CHANNELS 6 Xposition Yposition Zposition Zrotation Yrotation Xrotation 
	JOINT LeftUpLeg
	{
		OFFSET 0.069520 -0.091406 -0.006815
		CHANNELS 3 Zrotation Yrotation Xrotation
		JOINT LeftLeg
		{
			OFFSET 0.034277 -0.375199 -0.004496
			CHANNELS 3 Zrotation Yrotation Xrotation
			JOINT LeftFoot
			{
				OFFSET -0.013596 -0.397961 -0.043693
				CHANNELS 3 Zrotation Yrotation Xrotation
				JOINT LeftToe
				{
					OFFSET 0.026358 -0.055791 0.119288
					CHANNELS 3 Zrotation Yrotation Xrotation
					End Site
					{
						OFFSET 0.000000 0.000000 0.000000
					}
				}
			}
		}
	}
	JOINT RightUpLeg
	{
		OFFSET -0.067670 -0.090522 -0.004320
		CHANNELS 3 Zrotation Yrotation Xrotation
		JOINT RightLeg
		{
			OFFSET -0.038290 -0.382569 -0.008850
			CHANNELS 3 Zrotation Yrotation Xrotation
			JOINT RightFoot
			{
				OFFSET 0.015774 -0.398415 -0.042312
				CHANNELS 3 Zrotation Yrotation Xrotation
				JOINT RightToe
				{
					OFFSET -0.025372 -0.048144 0.123348
					CHANNELS 3 Zrotation Yrotation Xrotation
					End Site
					{
						OFFSET 0.000000 0.000000 0.000000
					}
				}
			}
		}
	}
	JOINT Spine
	{
		OFFSET -0.002533 0.108963 -0.026696
		CHANNELS 3 Zrotation Yrotation Xrotation
		JOINT Spine1
		{
			OFFSET 0.005487 0.135180 0.001092
			CHANNELS 3 Zrotation Yrotation Xrotation
			JOINT Spine2
			{
				OFFSET 0.001457 0.052922 0.025425
				CHANNELS 3 Zrotation Yrotation Xrotation
				JOINT Neck
				{
					OFFSET -0.002778 0.213870 -0.042857
					CHANNELS 3 Zrotation Yrotation Xrotation
					JOINT Head
					{
						OFFSET 0.005152 0.064970 0.051349
						CHANNELS 3 Zrotation Yrotation Xrotation
						End Site
						{
							OFFSET 0.000000 0.000000 0.000000
						}
					}
				}
				JOINT LeftShoulder
				{
					OFFSET 0.078845 0.121749 -0.034090
					CHANNELS 3 Zrotation Yrotation Xrotation
					JOINT LeftArm
					{
						OFFSET 0.090977 0.030469 -0.008868
						CHANNELS 3 Zrotation Yrotation Xrotation
						JOINT LeftForeArm
						{
							OFFSET 0.259612 -0.012772 -0.027456
							CHANNELS 3 Zrotation Yrotation Xrotation
							JOINT LeftHand
							{
								OFFSET 0.249234 0.008986 -0.001171
								CHANNELS 3 Zrotation Yrotation Xrotation
								End Site
								{
									OFFSET 0.000000 0.000000 0.000000
								}
							}
						}
					}
				}
				JOINT RightShoulder
				{
					OFFSET -0.081759 0.118833 -0.038615
					CHANNELS 3 Zrotation Yrotation Xrotation
					JOINT RightArm
					{
						OFFSET -0.096012 0.032551 -0.009143
						CHANNELS 3 Zrotation Yrotation Xrotation
						JOINT RightForeArm
						{
							OFFSET -0.253742 -0.013329 -0.021401
							CHANNELS 3 Zrotation Yrotation Xrotation
							JOINT RightHand
							{
								OFFSET -0.255298 0.007772 -0.005559
								CHANNELS 3 Zrotation Yrotation Xrotation
								End Site
								{
									OFFSET 0.000000 0.000000 0.000000
								}
							}
						}
					}
				}
			}
		}
	}
}
MOTION
Frames: 12
Frame Time: 0.050000
0.000000 0.958251 0.000000 -1.542206 -5.938807 1.956219 5.822963 0.257199 5.749514 -3.167077 0.454300 -7.928666 4.486969 11.663812 14.449531 0.000000 0.000000 0.000000 -5.061587 0.085314 2.444167 3.918848 -0.374918 -5.273832 -2.670553 -11.644808 16.028662 0.000000 0.000000 0.000000 -1.334243 0.052701 -0.927947 4.251300 -0.746115 -20.640874 -0.299570 1.321376 29.477032 1.168170 0.421745 -24.963006 0.000000 0.000000 0.000000 -23.153941 2.735232 -2.114298 -52.225093 -9.636672 -4.866659 -11.985212 -24.399887 4.052218 0.000000 0.000000 0.000000 15.664676 2.445545 -0.051456 58.879520 4.712006 -6.231541 8.950730 27.557686 3.266372 0.000000 0.000000 0.000000 
-0.000075 0.957043 0.000274 -1.918110 -6.845895 2.551788 6.281327 0.247274 5.805551 -3.371029 0.485960 -8.858908 4.969182 12.226970 13.543951 0.000000 0.000000 0.000000 -4.469887 0.112952 1.501943 3.793696 -0.358038 -4.765324 -2.379616 -11.115446 15.343838 0.000000 0.000000 0.000000 -1.273829 0.118739 -2.700302 4.247115 -0.848971 -19.388464 -0.116635 1.439305 29.799475 1.449274 0.120445 -23.997163 0.000000 0.000000 0.000000 -23.505359 3.236587 -2.314057 -51.746781 -10.576415 -4.519290 -12.616230 -25.048987 4.339724 0.000000 0.000000 0.000000 14.908815 3.086218 0.248989 59.715089 4.288343 -6.598455 8.597080 29.140518 3.389918 0.000000 0.000000 0.000000 
-0.000045 0.956803 0.000409 -1.741463 -6.809892 2.801109 6.593191 0.183018 4.817985 -4.134434 0.512654 -7.214033 4.735281 11.746692 12.608239 0.000000 0.000000 0.000000 -4.520663 0.142803 1.048214 3.442165 -0.342842 -4.942002 -2.141042 -10.938506 16.249196 0.000000 0.000000 0.000000 -1.406604 0.139837 -3.265033 4.422961 -0.910000 -19.185135 -0.175033 0.963417 30.159104 1.279785 0.103856 -23.429477 0.000000 0.000000 0.000000 -23.891609 2.989231 -2.027364 -51.082792 -11.356669 -4.262466 -12.805175 -24.671001 4.323172 0.000000 0.000000 0.000000 14.614315 3.764585 0.512780 59.698307 4.271574 -6.638129 7.274340 28.410427 2.935171 0.000000 0.000000 0.000000 
-0.000077 0.956901 0.000575 -1.851002 -7.631134 3.056558 6.560871 0.210083 5.084804 -4.142351 0.525471 -7.785330 5.133614 12.352870 12.992190 0.000000 0.000000 0.000000 -4.646115 0.178567 0.716397 3.660292 -0.343053 -4.746634 -2.077222 -11.111398 16.925141 0.000000 0.000000 0.000000 -1.559697 0.168989 -3.988523 4.840463 -1.039556 -19.158171 -0.296396 1.099549 30.804961 1.469332 -0.105657 -23.114333 0.000000 0.000000 0.000000 -24.514540 3.641614 -2.329065 -50.756767 -11.667001 -4.233941 -13.530207 -24.641544 4.512759 0.000000 0.000000 0.000000 14.529618 4.545626 0.840041 59.686678 4.461407 -6.635243 6.377091 27.786229 2.635234 0.000000 0.000000 0.000000 
-0.000104 0.957585 0.000826 -1.783674 -7.507987 2.764308 6.353760 0.217298 5.018046 -4.057842 0.516920 -7.423277 5.017627 12.176585 12.961409 0.000000 0.000000 0.000000 -4.574813 0.160346 0.906883 3.303562 -0.328656 -4.652451 -1.905122 -10.808169 16.891952 0.000000 0.000000 0.000000 -1.418321 0.147870 -3.442290 4.907656 -1.076009 -18.921724 -0.660793 1.384698 30.432144 1.655769 -0.176386 -22.748293 0.000000 0.000000 0.000000 -24.149687 3.147514 -2.126624 -50.892620 -11.941812 -4.052540 -13.938885 -25.010164 4.654387 0.000000 0.000000 0.000000 14.883973 4.445058 0.831330 59.468233 4.300341 -6.637164 6.220936 27.112942 2.534529 0.000000 0.000000 0.000000 
-0.000092 0.958054 0.001128 -1.739049 -7.496042 2.970491 6.166769 0.218498 4.972079 -4.024321 0.517342 -7.862336 5.030560 12.231663 13.327830 0.000000 0.000000 0.000000 -4.688725 0.177469 0.744508 3.048571 -0.317255 -4.639459 -1.535053 -10.339822 17.421541 0.000000 0.000000 0.000000 -1.663193 0.151543 -3.576251 5.131541 -1.102822 -19.331444 -0.626688 1.260191 31.016948 1.667114 -0.209756 -22.820885 0.000000 0.000000 0.000000 -23.941491 3.319258 -2.156299 -51.191865 -12.265907 -3.990701 -14.285819 -25.232977 4.806577 0.000000 0.000000 0.000000 14.479698 4.753408 0.998981 59.377776 4.394284 -6.658103 5.787609 26.326468 2.350873 0.000000 0.000000 0.000000 
-0.000113 0.958226 0.001417 -1.753233 -7.413510 2.847675 6.061704 0.227046 5.054729 -3.905162 0.510782 -8.021280 5.061055 12.317719 13.624135 0.000000 0.000000 0.000000 -4.533817 0.166233 0.751930 2.841795 -0.307068 -4.466110 -1.259243 -9.847662 17.290721 0.000000 0.000000 0.000000 -1.580258 0.143153 -3.345191 5.136045 -1.126611 -19.055813 -0.801328 1.227583 30.859676 1.919200 -0.364424 -22.820799 0.000000 0.000000 0.000000 -24.037871 3.007340 -1.978427 -51.161227 -12.079145 -4.058820 -14.565677 -25.701440 4.968436 0.000000 0.000000 0.000000 14.567901 4.892019 1.064440 59.258829 4.494386 -6.582411 5.446503 26.105624 2.253673 0.000000 0.000000 0.000000 
-0.000091 0.958028 0.001705 -1.820488 -7.329306 2.868158 6.078264 0.218607 4.944975 -3.860092 0.507080 -8.018377 5.164031 12.468037 13.412214 0.000000 0.000000 0.000000 -4.325372 0.157279 0.690772 2.629593 -0.295003 -4.230063 -1.164129 -9.573267 16.894982 0.000000 0.000000 0.000000 -1.416486 0.136480 -3.131344 5.094176 -1.116598 -19.015498 -0.944395 1.098823 30.896519 2.005138 -0.448580 -22.594416 0.000000 0.000000 0.000000 -23.870704 2.560002 -1.663787 -51.088674 -11.736119 -4.207025 -14.832997 -26.450760 5.195747 0.000000 0.000000 0.000000 14.598608 5.050754 1.126103 59.118527 4.550578 -6.542446 4.953951 26.118819 2.144148 0.000000 0.000000 0.000000 
-0.000081 0.958077 0.002003 -1.773660 -7.537685 2.758382 5.898628 0.240122 5.106333 -3.699234 0.501401 -8.112831 5.254405 12.601167 13.486757 0.000000 0.000000 0.000000 -4.351807 0.154444 0.788235 2.549959 -0.288225 -4.120392 -1.011563 -9.331934 16.821924 0.000000 0.000000 0.000000 -1.246298 0.125564 -2.816973 5.142446 -1.144997 -18.892686 -0.989773 1.323732 30.743055 2.097712 -0.500935 -22.408127 0.000000 0.000000 0.000000 -24.121726 2.240209 -1.510838 -50.998986 -11.272750 -4.390495 -15.000318 -26.990097 5.346291 0.000000 0.000000 0.000000 14.732162 5.079760 1.148272 58.752263 4.426586 -6.553765 4.848407 26.601019 2.166703 0.000000 0.000000 0.000000 
-0.000038 0.958050 0.002295 -1.718201 -7.771507 2.754158 5.729483 0.249490 5.062778 -3.586210 0.498159 -8.155949 5.234940 12.538981 13.391847 0.000000 0.000000 0.000000 -4.373509 0.164897 0.665564 2.336767 -0.274002 -3.991740 -0.902858 -9.120719 16.583605 0.000000 0.000000 0.000000 -1.126534 0.115544 -2.535412 5.098636 -1.141109 -18.840199 -1.005978 1.447223 30.540301 2.275911 -0.618258 -22.313773 0.000000 0.000000 0.000000 -24.053003 2.160406 -1.457805 -51.352741 -10.715588 -4.608083 -15.098754 -27.420911 5.472883 0.000000 0.000000 0.000000 15.039052 5.234409 1.194548 58.303360 4.412868 -6.481171 4.548752 27.132137 2.141921 0.000000 0.000000 0.000000 
-0.000010 0.958053 0.002531 -1.570106 -7.923666 2.632769 5.618468 0.263646 5.148551 -3.548918 0.497466 -8.112823 5.074156 12.278687 13.484952 0.000000 0.000000 0.000000 -4.494366 0.165223 0.797342 2.172472 -0.264525 -3.980230 -1.055125 -9.412290 16.639137 0.000000 0.000000 0.000000 -1.160176 0.104571 -2.257965 5.306475 -1.193507 -18.952145 -1.088616 1.628003 30.616585 2.518771 -0.770661 -22.181805 0.000000 0.000000 0.000000 -24.170158 2.052043 -1.409990 -51.437709 -10.218916 -4.836104 -15.177801 -27.885177 5.602503 0.000000 0.000000 0.000000 15.100152 5.186108 1.186213 57.829839 4.600749 -6.357729 5.063720 28.017895 2.345777 0.000000 0.000000 0.000000 
0.000007 0.957921 0.002757 -1.540866 -8.534911 2.545973 5.772346 0.291712 5.520909 -3.630345 0.512788 -8.430245 5.104744 12.288656 13.658107 0.000000 0.000000 0.000000 -4.851430 0.189945 0.835989 2.525073 -0.277855 -3.962660 -0.967547 -9.345413 16.618494 0.000000 0.000000 0.000000 -1.188642 0.100529 -2.135823 5.323817 -1.243778 -18.532434 -0.886551 1.775288 30.348631 2.711864 -0.933002 -22.002588 0.000000 0.000000 0.000000 -24.121815 2.046937 -1.346732 -51.689438 -9.611730 -5.076416 -15.084678 -28.346770 5.694311 0.000000 0.000000 0.000000 14.853893 5.380340 1.235333 57.400680 4.039054 -6.547407 7.078929 31.315330 3.177798 0.000000 0.000000 0.000000 
